<svg xmlns="http://www.w3.org/2000/svg" xmlns:xlink="http://www.w3.org/1999/xlink" width="500" zoomAndPan="magnify" viewBox="0 0 375 374.999991" height="500" preserveAspectRatio="xMidYMid meet" version="1.2"><defs><clipPath id="b27abc8195"><path d="M 363 222 L 375 222 L 375 234.363281 L 363 234.363281 Z M 363 222 "/></clipPath><clipPath id="40886710d2"><path d="M 0 157.863281 L 56 157.863281 L 56 231 L 0 231 Z M 0 157.863281 "/></clipPath><clipPath id="0e80674d9f"><path d="M 71 157.863281 L 127 157.863281 L 127 231 L 71 231 Z M 71 157.863281 "/></clipPath><clipPath id="328b52349a"><path d="M 157 157.863281 L 202 157.863281 L 202 231 L 157 231 Z M 157 157.863281 "/></clipPath><clipPath id="04243be175"><path d="M 217 157.863281 L 265 157.863281 L 265 231 L 217 231 Z M 217 157.863281 "/></clipPath><clipPath id="8036f624d9"><path d="M 276 157.863281 L 282 157.863281 L 282 231 L 276 231 Z M 276 157.863281 "/></clipPath><clipPath id="71257a0285"><path d="M 299 157.863281 L 356 157.863281 L 356 231 L 299 231 Z M 299 157.863281 "/></clipPath></defs><g id="e86d9b8012"><rect x="0" width="375" y="0" height="374.999991" style="fill:#ffffff;fill-opacity:1;stroke:none;"/><rect x="0" width="375" y="0" height="374.999991" style="fill:#ffffff;fill-opacity:1;stroke:none;"/><g clip-rule="nonzero" clip-path="url(#b27abc8195)"><path style=" stroke:none;fill-rule:evenodd;fill:#252525;fill-opacity:1;" d="M 369.011719 222.886719 C 365.828125 222.886719 363.140625 225.570312 363.140625 228.625 C 363.140625 231.6875 365.828125 234.363281 369.011719 234.363281 C 372.492188 234.363281 374.980469 231.6875 374.980469 228.625 C 374.980469 225.378906 372.492188 222.886719 369.011719 222.886719 Z M 369.011719 233.695312 C 366.128906 233.695312 363.734375 231.300781 363.734375 228.625 C 363.734375 225.855469 366.128906 223.5625 369.011719 223.5625 C 371.996094 223.5625 374.1875 225.855469 374.1875 228.625 C 374.1875 231.300781 371.996094 233.695312 369.011719 233.695312 Z M 371.390625 227.289062 C 371.390625 226.621094 370.996094 225.285156 368.816406 225.285156 L 366.917969 225.285156 L 366.917969 232.066406 L 367.824219 232.066406 L 367.824219 229.101562 L 369.308594 229.101562 L 370.597656 232.066406 L 371.390625 232.066406 L 370.199219 229.003906 C 370.902344 228.910156 371.390625 228.152344 371.390625 227.289062 Z M 368.90625 228.523438 L 367.820312 228.523438 L 367.820312 226.042969 L 369.105469 226.042969 C 370 226.042969 370.695312 226.335938 370.695312 227.289062 C 370.695312 227.867188 370.394531 228.523438 368.90625 228.523438 Z M 368.90625 228.523438 "/></g><g clip-rule="nonzero" clip-path="url(#40886710d2)"><path style=" stroke:none;fill-rule:evenodd;fill:#252525;fill-opacity:1;" d="M 54.277344 230.535156 L 5.515625 170.664062 L 5.515625 229.476562 L 0.0195312 229.476562 L 0.0195312 158.152344 L 1.316406 157.863281 L 49.679688 217.0625 L 49.679688 158.921875 L 55.277344 158.921875 L 55.277344 230.34375 Z M 54.277344 230.535156 "/></g><g clip-rule="nonzero" clip-path="url(#0e80674d9f)"><path style=" stroke:none;fill-rule:evenodd;fill:#252525;fill-opacity:1;" d="M 98.542969 230.535156 C 81.367188 230.535156 71.0625 220.855469 71.0625 203.542969 L 71.0625 157.863281 L 76.722656 157.863281 L 76.722656 203.441406 C 76.722656 218.117188 85.308594 225.550781 98.542969 225.550781 C 111.773438 225.550781 120.5625 217.917969 120.5625 203.441406 L 120.5625 157.863281 L 126.320312 157.863281 L 126.320312 203.542969 C 126.320312 220.363281 115.308594 230.535156 98.542969 230.535156 Z M 98.542969 230.535156 "/></g><g clip-rule="nonzero" clip-path="url(#328b52349a)"><path style=" stroke:none;fill-rule:evenodd;fill:#252525;fill-opacity:1;" d="M 179.007812 230.535156 C 171.242188 230.535156 164.269531 228.042969 157.898438 224.007812 L 160.585938 219.304688 C 166.460938 223.144531 172.933594 225.640625 179.507812 225.640625 C 189.164062 225.640625 195.640625 219.6875 195.640625 211.910156 C 195.640625 203.75 189.964844 200.199219 179.605469 195.6875 C 168.355469 190.886719 161.484375 185.894531 161.484375 176.199219 C 161.484375 166.023438 170.34375 157.863281 183.390625 157.863281 C 189.761719 157.863281 195.539062 159.878906 199.820312 162.660156 L 197.132812 167.175781 C 193.449219 164.675781 188.371094 162.757812 182.894531 162.757812 C 173.132812 162.757812 167.058594 168.519531 167.058594 175.8125 C 167.058594 183.398438 173.234375 187.046875 182.097656 190.984375 C 194.644531 196.457031 201.316406 201.160156 201.316406 211.238281 C 201.316406 222.761719 191.355469 230.535156 179.007812 230.535156 Z M 179.007812 230.535156 "/></g><g clip-rule="nonzero" clip-path="url(#04243be175)"><path style=" stroke:none;fill-rule:evenodd;fill:#252525;fill-opacity:1;" d="M 257.238281 230.535156 L 222.570312 194.648438 L 222.570312 230.535156 L 217.101562 230.535156 L 217.101562 157.863281 L 222.570312 157.863281 L 222.570312 191.671875 L 256.066406 157.863281 L 263.097656 157.863281 L 227.84375 193.15625 L 264.464844 230.535156 Z M 257.238281 230.535156 "/></g><g clip-rule="nonzero" clip-path="url(#8036f624d9)"><path style=" stroke:none;fill-rule:evenodd;fill:#252525;fill-opacity:1;" d="M 276.308594 157.863281 L 281.4375 157.863281 L 281.4375 230.535156 L 276.308594 230.535156 Z M 276.308594 157.863281 "/></g><g clip-rule="nonzero" clip-path="url(#71257a0285)"><path style=" stroke:none;fill-rule:evenodd;fill:#252525;fill-opacity:1;" d="M 354.246094 230.535156 L 305.484375 170.664062 L 305.484375 229.476562 L 299.988281 229.476562 L 299.988281 158.152344 L 301.289062 157.863281 L 349.652344 217.0625 L 349.652344 158.921875 L 355.246094 158.921875 L 355.246094 230.34375 Z M 354.246094 230.535156 "/></g></g></svg>