<svg width="98" height="20" viewBox="0 0 98 20" fill="none" xmlns="http://www.w3.org/2000/svg">
<path fill-rule="evenodd" clip-rule="evenodd" d="M96.4395 17C95.6072 17 94.9053 17.7014 94.9053 18.5C94.9053 19.3004 95.6072 20 96.4395 20C97.3493 20 98 19.3004 98 18.5C98 17.6516 97.3493 17 96.4395 17ZM96.4393 19.8255C95.686 19.8255 95.0598 19.1996 95.0598 18.5C95.0598 17.7765 95.686 17.1762 96.4393 17.1762C97.2193 17.1762 97.7922 17.7765 97.7922 18.5C97.7922 19.1996 97.2193 19.8255 96.4393 19.8255ZM97.0612 18.151C97.0612 17.9766 96.9586 17.6265 96.388 17.6265H95.892V19.3997H96.1287V18.6252H96.5176L96.8544 19.3997H97.0612L96.7503 18.599C96.9337 18.5751 97.0612 18.3768 97.0612 18.151ZM96.4123 18.474H96.1286V17.8248H96.4637C96.6983 17.8248 96.8794 17.9014 96.8794 18.151C96.8794 18.3016 96.8011 18.474 96.4123 18.474Z" fill="#252525"/>
<path fill-rule="evenodd" clip-rule="evenodd" d="M14.181 19L1.43645 3.34704V18.7232H0V0.0754862L0.339466 0L12.9798 15.4768V0.277025H14.4421V18.9497L14.181 19Z" fill="#252525"/>
<path fill-rule="evenodd" clip-rule="evenodd" d="M25.7499 19C21.2617 19 18.5685 16.4685 18.5685 11.9423V0H20.0471V11.9165C20.0471 15.7525 22.2912 17.696 25.7499 17.696C29.2087 17.696 31.5056 15.7014 31.5056 11.9165V0H33.0106V11.9423C33.0106 16.3406 30.1326 19 25.7499 19Z" fill="#252525"/>
<path fill-rule="evenodd" clip-rule="evenodd" d="M46.781 19C44.7507 19 42.9289 18.3475 41.2632 17.2933L41.966 16.0636C43.5016 17.0674 45.1934 17.7201 46.9109 17.7201C49.4353 17.7201 51.1273 16.1637 51.1273 14.1307C51.1273 11.9973 49.644 11.0685 46.9371 9.889C43.9961 8.63396 42.2002 7.32873 42.2002 4.79404C42.2002 2.13339 44.5165 0 47.9257 0C49.5914 0 51.101 0.527014 52.2202 1.2548L51.5176 2.43455C50.5545 1.78181 49.2274 1.27989 47.7959 1.27989C45.2452 1.27989 43.6578 2.78589 43.6578 4.69342C43.6578 6.67624 45.2714 7.62988 47.5877 8.6593C50.8668 10.0898 52.6106 11.3197 52.6106 13.955C52.6106 16.967 50.008 19 46.781 19Z" fill="#252525"/>
<path fill-rule="evenodd" clip-rule="evenodd" d="M67.227 19L58.1657 9.61689V19H56.7368V0H58.1657V8.83886L66.9207 0H68.7582L59.5441 9.22763L69.1158 19H67.227Z" fill="#252525"/>
<path fill-rule="evenodd" clip-rule="evenodd" d="M72.2106 19H73.5516V0H72.2106V19Z" fill="#252525"/>
<path fill-rule="evenodd" clip-rule="evenodd" d="M92.5808 19L79.8364 3.34704V18.7232H78.4V0.0754862L78.7397 0L91.3794 15.4768V0.277025H92.8421V18.9497L92.5808 19Z" fill="#252525"/>
</svg>
